<svg xmlns="http://www.w3.org/2000/svg" xmlns:xlink="http://www.w3.org/1999/xlink" viewBox="0 0 624 996"><defs><style>.cls-1{fill:none;stroke:#ccdde2;stroke-miterlimit:10;stroke-width:10px;}.cls-2{fill:#e9f8ff;}.cls-3{fill:#662d91;}.cls-4{fill:url(#linear-gradient);}.cls-5{fill:#ccdde2;}.cls-6{fill:#e4eff4;}.cls-7{fill:url(#linear-gradient-2);}</style><linearGradient id="linear-gradient" x1="153.28" y1="354.85" x2="468.11" y2="173.09" gradientUnits="userSpaceOnUse"><stop offset="0" stop-color="#662d91"/><stop offset="1" stop-color="#2d003f"/></linearGradient><linearGradient id="linear-gradient-2" x1="220.48" y1="550.3" x2="398.29" y2="550.3" xlink:href="#linear-gradient"/></defs><title>Artboard 5 copy</title><g id="Layer_2" data-name="Layer 2"><ellipse class="cls-1" cx="183.87" cy="371.18" rx="91.52" ry="92.83"/><circle class="cls-1" cx="440.13" cy="375.1" r="91.52"/><circle class="cls-2" cx="310.69" cy="245.66" r="200.04"/><circle class="cls-3" cx="310.69" cy="263.97" r="181.73"/><circle class="cls-4" cx="310.69" cy="263.97" r="181.73"/><path class="cls-3" d="M208.56,141.17l39.06,18A150.49,150.49,0,0,0,156.55,277a151.53,151.53,0,0,1-1.44-20.92A150,150,0,0,1,208.56,141.17Z"/><g id="leg"><ellipse class="cls-5" cx="117.19" cy="934.69" rx="6.54" ry="15.69"/><ellipse class="cls-5" cx="130.27" cy="934.69" rx="6.54" ry="15.69"/><ellipse class="cls-5" cx="143.34" cy="934.69" rx="6.54" ry="15.69"/><ellipse class="cls-5" cx="156.41" cy="934.69" rx="6.54" ry="15.69"/><ellipse class="cls-5" cx="169.49" cy="934.69" rx="6.54" ry="15.69"/><ellipse class="cls-5" cx="182.56" cy="934.69" rx="6.54" ry="15.69"/><ellipse class="cls-5" cx="195.64" cy="934.69" rx="6.54" ry="15.69"/><ellipse class="cls-5" cx="208.71" cy="934.69" rx="6.54" ry="15.69"/><ellipse class="cls-5" cx="221.79" cy="934.69" rx="6.54" ry="15.69"/><ellipse class="cls-5" cx="234.86" cy="934.69" rx="6.54" ry="15.69"/><ellipse class="cls-5" cx="247.94" cy="934.69" rx="6.54" ry="15.69"/><ellipse class="cls-5" cx="261.01" cy="934.69" rx="6.54" ry="15.69"/><ellipse class="cls-5" cx="274.08" cy="934.69" rx="6.54" ry="15.69"/><path class="cls-5" d="M285.85,919.31v30.75c-3-1.46-5.23-7.79-5.23-15.37S282.87,920.77,285.85,919.31Z"/><rect class="cls-2" x="162.95" y="709.81" width="122.9" height="211.81"/><rect class="cls-2" x="110.65" y="892.85" width="175.2" height="47.07" rx="1" ry="1"/><rect class="cls-2" x="110.65" y="853.62" width="175.2" height="78.45" rx="10.36" ry="10.36"/><rect class="cls-3" x="181.26" y="772.56" width="86.29" height="10.46" rx="1" ry="1"/><rect class="cls-3" x="181.26" y="790.87" width="86.29" height="10.46" rx="1" ry="1"/><rect class="cls-3" x="181.26" y="809.17" width="86.29" height="10.46" rx="1" ry="1"/></g><g id="leg-2" data-name="leg"><ellipse class="cls-5" cx="501.58" cy="934.69" rx="6.54" ry="15.69"/><ellipse class="cls-5" cx="488.5" cy="934.69" rx="6.54" ry="15.69"/><ellipse class="cls-5" cx="475.43" cy="934.69" rx="6.54" ry="15.69"/><ellipse class="cls-5" cx="462.36" cy="934.69" rx="6.54" ry="15.69"/><ellipse class="cls-5" cx="449.28" cy="934.69" rx="6.54" ry="15.69"/><ellipse class="cls-5" cx="436.21" cy="934.69" rx="6.54" ry="15.69"/><ellipse class="cls-5" cx="423.13" cy="934.69" rx="6.54" ry="15.69"/><ellipse class="cls-5" cx="410.06" cy="934.69" rx="6.54" ry="15.69"/><ellipse class="cls-5" cx="396.98" cy="934.69" rx="6.54" ry="15.69"/><ellipse class="cls-5" cx="383.91" cy="934.69" rx="6.54" ry="15.69"/><ellipse class="cls-5" cx="370.83" cy="934.69" rx="6.54" ry="15.69"/><ellipse class="cls-5" cx="357.76" cy="934.69" rx="6.54" ry="15.69"/><ellipse class="cls-5" cx="344.69" cy="934.69" rx="6.54" ry="15.69"/><path class="cls-5" d="M332.92,919.31v30.75c3-1.46,5.23-7.79,5.23-15.37S335.9,920.77,332.92,919.31Z"/><rect class="cls-2" x="332.92" y="709.81" width="122.9" height="211.81" transform="translate(788.74 1631.42) rotate(180)"/><rect class="cls-2" x="332.92" y="892.85" width="175.2" height="47.07" rx="1" ry="1" transform="translate(841.04 1832.76) rotate(180)"/><rect class="cls-2" x="332.92" y="853.62" width="175.2" height="78.45" rx="10.36" ry="10.36" transform="translate(841.04 1785.69) rotate(-180)"/><rect class="cls-3" x="351.22" y="772.56" width="86.29" height="10.46" rx="1" ry="1" transform="translate(788.74 1555.58) rotate(180)"/><rect class="cls-3" x="351.22" y="790.87" width="86.29" height="10.46" rx="1" ry="1" transform="translate(788.74 1592.19) rotate(180)"/><rect class="cls-3" x="351.22" y="809.17" width="86.29" height="10.46" rx="1" ry="1" transform="translate(788.74 1628.8) rotate(180)"/></g><path class="cls-2" d="M183.87,555.53V668a52.3,52.3,0,0,1-104.59,0V555.53Z"/><path class="cls-2" d="M544.72,555.53V668a52.3,52.3,0,0,1-104.59,0V555.53Z"/><rect class="cls-2" x="79.28" y="393.4" width="465.45" height="305.94" rx="30.64" ry="30.64"/><rect class="cls-3" x="450.59" y="542.45" width="101.98" height="7.84" rx="1.04" ry="1.04" transform="translate(1003.16 1092.75) rotate(-180)"/><rect class="cls-3" x="450.59" y="560.76" width="101.98" height="7.84" rx="1.04" ry="1.04" transform="translate(1003.16 1129.36) rotate(180)"/><rect class="cls-3" x="450.59" y="524.15" width="101.98" height="7.84" rx="1.04" ry="1.04" transform="translate(1003.16 1056.14) rotate(-180)"/><rect class="cls-3" x="71.43" y="547.68" width="101.98" height="7.84" rx="1.04" ry="1.04" transform="translate(244.84 1103.21) rotate(-180)"/><rect class="cls-3" x="71.43" y="565.99" width="101.98" height="7.84" rx="1.04" ry="1.04" transform="translate(244.84 1139.82) rotate(-180)"/><rect class="cls-3" x="71.43" y="529.38" width="101.98" height="7.84" rx="1.04" ry="1.04" transform="translate(244.84 1066.6) rotate(180)"/><rect class="cls-6" x="162.95" y="393.4" width="292.87" height="326.86" rx="1" ry="1"/><rect class="cls-7" x="220.48" y="461.39" width="177.81" height="177.81" rx="1" ry="1"/><rect class="cls-6" x="257.09" y="479.7" width="101.98" height="47.07" rx="3.5" ry="3.5"/><rect class="cls-6" x="330.3" y="592.14" width="101.98" height="18.3" rx="2.42" ry="2.42"/><rect class="cls-6" x="330.3" y="550.3" width="101.98" height="18.3" rx="2.42" ry="2.42"/><rect class="cls-6" x="186.49" y="592.14" width="101.98" height="18.3" rx="2.42" ry="2.42" transform="translate(474.95 1202.58) rotate(180)"/><rect class="cls-6" x="186.49" y="550.3" width="101.98" height="18.3" rx="2.42" ry="2.42" transform="translate(474.95 1118.9) rotate(-180)"/><rect class="cls-5" x="147.26" y="362.03" width="329.48" height="36.52" rx="1" ry="1"/></g></svg>