<svg id="Layer_1" data-name="Layer 1" xmlns="http://www.w3.org/2000/svg" viewBox="0 0 200 200"><defs><style>.cls-1{fill:#8cc63f;}.cls-2{fill:none;stroke:#006837;stroke-linecap:round;stroke-miterlimit:10;stroke-width:2px;}.cls-3{fill:#088747;}.cls-4{fill:#0095bc;}.cls-5{fill:#077089;}.cls-6{fill:#7ddee2;}</style></defs><title>1Artboard 1</title><path class="cls-1" d="M60.89,85.56s6.79,8,13.2,8.44a18.89,18.89,0,0,0,11.46-3.28s-4.43-7.14-10.7-8.57S60.89,85.56,60.89,85.56Z"/><path class="cls-1" d="M65.55,99.45s8.63,6,14.94,4.73A18.9,18.9,0,0,0,90.7,98s-6.12-5.74-12.54-5.5S65.55,99.45,65.55,99.45Z"/><path class="cls-1" d="M57,7.06s7.69,7.13,7.87,13.55a18.89,18.89,0,0,1-3.76,11.31s-6.94-4.72-8.11-11S57,7.06,57,7.06Z"/><path class="cls-1" d="M39,16.72s10.47-.47,15.18,3.91a18.92,18.92,0,0,1,5.4,10.62s-8.24,1.63-13.56-2S39,16.72,39,16.72Z"/><path class="cls-1" d="M70,18.91s6.23,8.43,5.22,14.77a19,19,0,0,1-5.8,10.41s-5.95-5.93-5.92-12.36S70,18.91,70,18.91Z"/><path class="cls-1" d="M84.15,30.52s2.68,10.13-.61,15.66A18.91,18.91,0,0,1,74.3,53.7S71,46,73.37,40,84.15,30.52,84.15,30.52Z"/><path class="cls-1" d="M90.34,42.37S91.4,52.8,87.28,57.74a18.91,18.91,0,0,1-10.31,6s-2.08-8.13,1.24-13.64S90.34,42.37,90.34,42.37Z"/><path class="cls-1" d="M98.1,56.43s-2.74,10.11-8.35,13.26A19,19,0,0,1,78,71.6s1-8.35,6-12.31S98.1,56.43,98.1,56.43Z"/><path class="cls-1" d="M42.28,32.23s5.3,9,11.54,10.6a19,19,0,0,0,11.85-1.26s-3.12-7.79-9.05-10.28S42.28,32.23,42.28,32.23Z"/><path class="cls-1" d="M51.07,47.41s6.89,7.9,13.31,8.27a18.92,18.92,0,0,0,11.41-3.43S71.28,45.17,65,43.82,51.07,47.41,51.07,47.41Z"/><path class="cls-1" d="M52.24,55.69s7.15,7.66,13.58,7.82A18.89,18.89,0,0,0,77.11,59.7S72.36,52.77,66,51.64,52.24,55.69,52.24,55.69Z"/><path class="cls-1" d="M58.58,65.84s7.16,7.66,13.59,7.81a18.94,18.94,0,0,0,11.29-3.82s-4.76-6.92-11.09-8.06S58.58,65.84,58.58,65.84Z"/><path class="cls-1" d="M59.84,77.21s7.24,7.58,13.67,7.66a18.93,18.93,0,0,0,11.25-4S79.92,74.05,73.58,73,59.84,77.21,59.84,77.21Z"/><path class="cls-1" d="M80.47,83.22s10.47-.51,14.74-5.31a18.92,18.92,0,0,0,4.38-11.08S91.24,66,86.28,70.07,80.47,83.22,80.47,83.22Z"/><path class="cls-1" d="M83,88.89s10.08,2.9,15.67-.27a18.9,18.9,0,0,0,7.73-9.07s-7.64-3.5-13.65-1.22S83,88.89,83,88.89Z"/><path class="cls-1" d="M84.71,97.2s9.65,4.08,15.58,1.61a18.91,18.91,0,0,0,8.76-8.08s-7.15-4.39-13.4-2.85S84.71,97.2,84.71,97.2Z"/><path class="cls-2" d="M87.86,108.79s-5-37.45-15-59.91C67.46,36.67,53.54,20.79,53.54,20.79"/><path class="cls-3" d="M165.08,40.13s-8.8,5.7-10.07,12a18.94,18.94,0,0,0,1.79,11.78s7.64-3.47,9.87-9.5S165.08,40.13,165.08,40.13Z"/><path class="cls-3" d="M181.17,52.71S170.93,50.46,165.55,54a18.87,18.87,0,0,0-7.13,9.54s7.84,3,13.69.35S181.17,52.71,181.17,52.71Z"/><path class="cls-3" d="M150.3,49.59s-7.58,7.25-7.66,13.68a19,19,0,0,0,4,11.24s6.87-4.83,7.93-11.17S150.3,49.59,150.3,49.59Z"/><path class="cls-3" d="M134.34,58.62s-4.36,9.54-2.06,15.54a18.93,18.93,0,0,0,7.83,9s4.59-7,3.23-13.32S134.34,58.62,134.34,58.62Z"/><path class="cls-3" d="M126.22,69.25s-2.81,10.1.41,15.67a18.94,18.94,0,0,0,9.14,7.64s3.43-7.66,1.1-13.65S126.22,69.25,126.22,69.25Z"/><path class="cls-3" d="M116.19,81.78s1,10.44,6,14.49a18.93,18.93,0,0,0,11.27,3.88s.47-8.39-3.85-13.15S116.19,81.78,116.19,81.78Z"/><path class="cls-3" d="M175.32,67.43s-6.77,8-13.18,8.48a18.94,18.94,0,0,1-11.47-3.25s4.4-7.15,10.67-8.6S175.32,67.43,175.32,67.43Z"/><path class="cls-3" d="M164.07,80.9s-8.14,6.61-14.53,5.88a18.92,18.92,0,0,1-10.66-5.33S144.54,75.25,151,75,164.07,80.9,164.07,80.9Z"/><path class="cls-3" d="M161.51,88.85s-8.35,6.34-14.71,5.4a19,19,0,0,1-10.48-5.67s5.85-6,12.28-6.07S161.51,88.85,161.51,88.85Z"/><path class="cls-3" d="M155.84,98.74s-8.36,6.33-14.72,5.38a18.89,18.89,0,0,1-10.47-5.68s5.86-6,12.29-6S155.84,98.74,155.84,98.74Z"/><path class="cls-2" d="M128.43,114.41s-.49-14.44,12.48-33.7c10.41-15.47,26-23.53,26.21-23.72"/><path class="cls-3" d="M94.22,32.32s6,8.61,4.79,14.92a18.93,18.93,0,0,1-6.1,10.24S87.14,51.38,87.36,45,94.22,32.32,94.22,32.32Z"/><path class="cls-3" d="M74.57,37.89s10.33,1.79,14,7.08a18.94,18.94,0,0,1,3,11.53s-8.4-.18-12.82-4.85S74.57,37.89,74.57,37.89Z"/><path class="cls-3" d="M104.33,46.67s4.28,9.57,1.93,15.55a19,19,0,0,1-7.9,8.92s-4.54-7.06-3.13-13.34S104.33,46.67,104.33,46.67Z"/><path class="cls-3" d="M115.7,61.05s.44,10.48-4,15.17a18.92,18.92,0,0,1-10.64,5.37s-1.6-8.25,2-13.55S115.7,61.05,115.7,61.05Z"/><path class="cls-3" d="M119.21,74s-1.21,10.41-6.3,14.35a18.91,18.91,0,0,1-11.35,3.63s-.28-8.39,4.14-13.06S119.21,74,119.21,74Z"/><path class="cls-3" d="M74.43,53.74s3.25,10,9,12.83a18.91,18.91,0,0,0,11.84,1.32s-1.38-8.29-6.63-12S74.43,53.74,74.43,53.74Z"/><path class="cls-3" d="M79.76,70.46s5,9.19,11.23,10.93a18.93,18.93,0,0,0,11.89-.91S100,72.6,94.13,69.93,79.76,70.46,79.76,70.46Z"/><path class="cls-3" d="M79.13,78.79s5.34,9,11.58,10.55a18.9,18.9,0,0,0,11.85-1.29s-3.15-7.79-9.09-10.26S79.13,78.79,79.13,78.79Z"/><path class="cls-3" d="M80.65,90.08s5.35,9,11.6,10.55a19,19,0,0,0,11.84-1.31s-3.16-7.78-9.1-10.25S80.65,90.08,80.65,90.08Z"/><path class="cls-2" d="M97.85,113.78s5.61-23.09.62-40.56a240.23,240.23,0,0,0-10-28.71"/><path class="cls-1" d="M135,84.36s-4.85,9.3-11,11.16a18.9,18.9,0,0,1-11.9-.66s2.73-7.94,8.53-10.73S135,84.36,135,84.36Z"/><path class="cls-1" d="M133.54,98.93s-7.09,7.73-13.52,7.94a19,19,0,0,1-11.32-3.72s4.69-7,11-8.16S133.54,98.93,133.54,98.93Z"/><path class="cls-1" d="M121.37,7s-5.92,8.65-4.68,15a19,19,0,0,0,6.18,10.19s5.73-6.15,5.46-12.57S121.37,7,121.37,7Z"/><path class="cls-1" d="M141.06,12.38s-10.32,1.86-13.93,7.18a18.92,18.92,0,0,0-2.92,11.56s8.4-.24,12.78-4.95S141.06,12.38,141.06,12.38Z"/><path class="cls-1" d="M111.37,21.38S107.16,31,109.56,37a18.9,18.9,0,0,0,8,8.86s4.49-7.1,3-13.36S111.37,21.38,111.37,21.38Z"/><path class="cls-1" d="M100.1,35.85S99.74,46.33,104.18,51a18.87,18.87,0,0,0,10.67,5.29s1.54-8.25-2.13-13.53S100.1,35.85,100.1,35.85Z"/><path class="cls-1" d="M96.7,48.78S98,59.19,103.09,63.09a18.93,18.93,0,0,0,11.38,3.54s.22-8.39-4.23-13S96.7,48.78,96.7,48.78Z"/><path class="cls-1" d="M92.25,64.21s4.92,9.26,11.08,11.07a19,19,0,0,0,11.9-.74s-2.79-7.93-8.61-10.67S92.25,64.21,92.25,64.21Z"/><path class="cls-1" d="M140.07,28.23s-3.17,10-8.91,12.89a18.94,18.94,0,0,1-11.83,1.41s1.31-8.29,6.54-12S140.07,28.23,140.07,28.23Z"/><path class="cls-1" d="M138.61,41.24s-5,9.23-11.15,11a19,19,0,0,1-11.89-.82s2.83-7.91,8.67-10.62S138.61,41.24,138.61,41.24Z"/><path class="cls-1" d="M136.11,51.23s-5,9.23-11.15,11a19,19,0,0,1-11.89-.82s2.84-7.9,8.67-10.61S136.11,51.23,136.11,51.23Z"/><path class="cls-1" d="M132.87,64.62s-5.28,9-11.51,10.63A18.93,18.93,0,0,1,109.5,74s3.1-7.8,9-10.31S132.87,64.62,132.87,64.62Z"/><path class="cls-1" d="M134.17,76s-5.38,9-11.63,10.49a18.87,18.87,0,0,1-11.84-1.35s3.19-7.77,9.13-10.21S134.17,76,134.17,76Z"/><path class="cls-1" d="M115.39,86.42s-10.32,1.83-15.56-1.91a18.92,18.92,0,0,1-6.73-9.83s8-2.68,13.7.21S115.39,86.42,115.39,86.42Z"/><path class="cls-1" d="M114.21,92.51S105,97.57,98.87,95.72a18.93,18.93,0,0,1-9.55-7.13s6.67-5.11,13-4.22S114.21,92.51,114.21,92.51Z"/><path class="cls-1" d="M114.36,101s-8.51,6.13-14.84,5a18.94,18.94,0,0,1-10.34-5.94s6-5.86,12.44-5.75S114.36,101,114.36,101Z"/><path class="cls-2" d="M114.07,113.78s-3.74-16.22,0-48.68,13.11-44.31,13.11-44.31"/><path class="cls-3" d="M34.92,46.37s8.8,5.71,10.07,12A18.94,18.94,0,0,1,43.2,70.16s-7.64-3.47-9.87-9.5S34.92,46.37,34.92,46.37Z"/><path class="cls-3" d="M18.83,59s10.24-2.25,15.62,1.27a18.91,18.91,0,0,1,7.13,9.54s-7.84,3-13.69.35S18.83,59,18.83,59Z"/><path class="cls-3" d="M49.7,55.84s7.58,7.24,7.66,13.67a19,19,0,0,1-4,11.24s-6.87-4.83-7.93-11.17S49.7,55.84,49.7,55.84Z"/><path class="cls-3" d="M65.66,64.86S70,74.4,67.72,80.4a18.93,18.93,0,0,1-7.83,9s-4.59-7-3.23-13.32S65.66,64.86,65.66,64.86Z"/><path class="cls-3" d="M73.78,75.49s2.81,10.1-.41,15.67a18.94,18.94,0,0,1-9.14,7.64s-3.43-7.66-1.1-13.65S73.78,75.49,73.78,75.49Z"/><path class="cls-3" d="M83.81,88s-1,10.44-6,14.49a18.93,18.93,0,0,1-11.27,3.88S66.1,98,70.42,93.24,83.81,88,83.81,88Z"/><path class="cls-3" d="M24.68,73.67s6.77,8,13.18,8.48A18.94,18.94,0,0,0,49.33,78.9s-4.4-7.15-10.67-8.6S24.68,73.67,24.68,73.67Z"/><path class="cls-3" d="M35.93,87.14S44.07,93.75,50.46,93A18.94,18.94,0,0,0,61.12,87.7S55.46,81.49,49,81.23,35.93,87.14,35.93,87.14Z"/><path class="cls-3" d="M38.49,95.09s8.35,6.34,14.71,5.4a19,19,0,0,0,10.48-5.67s-5.85-6-12.28-6.07S38.49,95.09,38.49,95.09Z"/><path class="cls-3" d="M44.16,105s8.36,6.33,14.72,5.38a18.89,18.89,0,0,0,10.47-5.68s-5.86-6-12.29-6.05S44.16,105,44.16,105Z"/><path class="cls-2" d="M68.46,112.63S64.87,93.27,56,84.45,33.57,60.73,33.57,60.73"/><rect class="cls-4" x="62.27" y="124.39" width="92.37" height="68.65" rx="27.13" ry="27.13"/><path class="cls-4" d="M160.72,147.23l-3.47,10.6-1.74,5.32A39.84,39.84,0,0,1,108,189.32q-1.29-.31-2.58-.75l-12.25-4a39.85,39.85,0,0,1-25.42-50.13L71,124.39l1.91-5.85a39.28,39.28,0,0,1,8.16-14.12h67.36a40,40,0,0,1,12.79,20A39.33,39.33,0,0,1,160.72,147.23Z"/><path class="cls-4" d="M139.78,190.08a30.73,30.73,0,0,0,15.07-18c4-13,7-29.23,7-29.23"/><rect class="cls-4" x="62.31" y="124.39" width="92.37" height="68.65" rx="27.13" ry="27.13" transform="translate(216.99 317.43) rotate(-180)"/><path class="cls-4" d="M56.23,147.23l3.47,10.6,1.74,5.32A39.84,39.84,0,0,0,109,189.32q1.29-.31,2.58-.75l12.25-4a39.84,39.84,0,0,0,25.42-50.13l-3.28-10.06L144,118.54a39.28,39.28,0,0,0-8.16-14.12H68.52a40,40,0,0,0-12.8,20A39.41,39.41,0,0,0,56.23,147.23Z"/><path class="cls-4" d="M77.17,190.08A30.73,30.73,0,0,1,62.1,172c-4-13-7-29.23-7-29.23"/><path class="cls-5" d="M169.62,110.84V118c0,3.53-2.62,6.41-5.83,6.41H51.87c-3.2,0-5.82-2.88-5.82-6.41v-7.14c0-3.54,2.62-6.42,5.82-6.42H163.79C167,104.42,169.62,107.3,169.62,110.84Z"/><path class="cls-6" d="M59.78,129.38s-1.25,2.5-1.25,7.49,6.24,21.22,6.24,21.22S62,144,67,137s9-7.62,9-7.62Z"/></svg>